<?xml version="1.0" encoding="UTF-8"?>
<svg version="1.1" xmlns="http://www.w3.org/2000/svg" width="512" height="512">
<path d="M0 0 C2.63603338 -0.00570868 5.27204137 -0.01257546 7.9080658 -0.02079773 C14.30119941 -0.03791403 20.69423442 -0.03884065 27.08738498 -0.03358483 C32.28908327 -0.02952809 37.49075264 -0.03100444 42.69244957 -0.03633308 C43.43541617 -0.03708151 44.17838277 -0.03782993 44.94386351 -0.03860103 C46.45366187 -0.04013266 47.96346023 -0.04167101 49.47325858 -0.043216 C63.60320568 -0.05691536 77.73309728 -0.05152166 91.86304309 -0.04003078 C104.75864962 -0.03010333 117.65411257 -0.04303519 130.54969696 -0.06696498 C143.82558635 -0.09141279 157.10140904 -0.10094979 170.37732047 -0.09431225 C177.81681888 -0.09083233 185.25620699 -0.09297033 192.69568825 -0.11056328 C199.02932698 -0.12535669 205.36277775 -0.12582843 211.69641308 -0.10849237 C214.92082031 -0.10003769 218.14482748 -0.09990317 221.36922836 -0.11314392 C237.85100861 -0.17562296 253.4858125 0.15093063 268.36791992 8.15405273 C269.35804077 8.66947632 269.35804077 8.66947632 270.36816406 9.1953125 C276.13700533 12.29390357 281.16478045 15.97402301 285.99291992 20.40405273 C286.74831055 21.06791992 287.50370117 21.73178711 288.28198242 22.41577148 C302.43105671 35.56808968 310.93405461 54.17911797 312.26990891 73.38674927 C312.415247 77.78951253 312.39931456 82.19089797 312.38110352 86.59545898 C312.38517907 88.2725 312.39052642 89.94953832 312.39703369 91.62657166 C312.41058778 96.13640057 312.40546073 100.64602121 312.39589643 105.15585327 C312.38824762 109.89223755 312.3953589 114.62860519 312.40005493 119.36499023 C312.40549311 127.30659153 312.39836751 135.24810876 312.3840332 143.18969727 C312.36766536 152.36373942 312.3730329 161.53758195 312.38951242 170.71161938 C312.40312901 178.60918732 312.40504745 186.50669524 312.39719641 194.40427113 C312.39252663 199.11257516 312.39187684 203.8207853 312.40180588 208.52908325 C312.41047737 212.94843978 312.4044504 217.36753844 312.38712311 221.78686714 C312.38316118 223.40658706 312.3842873 225.02632874 312.3909111 226.64603996 C312.39912741 228.85928911 312.38880547 231.07171519 312.37387085 233.28491211 C312.37273977 234.52221069 312.3716087 235.75950928 312.37044334 237.03430176 C311.66548729 243.32669639 308.71139305 247.34397121 303.99291992 251.40405273 C298.46395152 255.31478648 292.50730698 255.14120706 285.99291992 254.40405273 C279.67936627 252.82566432 276.57653074 249.14607923 273.12182617 243.81811523 C270.84988939 238.95978675 270.86723294 233.84712356 270.86161804 228.56170654 C270.85844447 227.56617165 270.85844447 227.56617165 270.85520679 226.55052495 C270.84924406 224.33990014 270.85020426 222.12933302 270.85107422 219.91870117 C270.84804022 218.32814945 270.8445181 216.7375986 270.84054565 215.14704895 C270.8326744 211.72749486 270.82751842 208.30795111 270.82425499 204.88838959 C270.81832782 199.47473485 270.80177109 194.06114526 270.78291321 188.64752197 C270.77657628 186.79140858 270.77025066 184.93529514 270.76393604 183.07918167 C270.76077023 182.14979357 270.75760442 181.22040547 270.75434268 180.2628541 C270.71232669 167.66523779 270.6792968 155.06765244 270.66699219 142.4699707 C270.65859924 133.9643285 270.63606458 125.45884844 270.59763652 116.95328736 C270.57792071 112.4570919 270.56545646 107.96113859 270.57047081 103.46489716 C270.57513351 99.23268262 270.56122392 95.0009267 270.53345871 90.76880455 C270.52657465 89.22173506 270.52639019 87.67461786 270.53365898 86.12755013 C270.57007169 77.50183299 270.07852251 70.17082606 265.99291992 62.40405273 C265.52370117 61.50170898 265.05448242 60.59936523 264.57104492 59.66967773 C261.07971086 54.37106487 257.31273813 50.83976866 251.99291992 47.40405273 C251.14729492 46.82655273 250.30166992 46.24905273 249.43041992 45.65405273 C240.8421274 41.24980016 231.19265183 41.25458079 221.77252197 41.27033997 C220.76959948 41.26807441 219.76667699 41.26580885 218.73336291 41.26347464 C215.38660184 41.25716547 212.03988158 41.25796203 208.69311523 41.25878906 C206.2877904 41.25579564 203.88246605 41.25239269 201.47714233 41.24861145 C195.6294613 41.24070176 189.78178977 41.23755759 183.93410447 41.23699907 C179.17753172 41.23652286 174.42096227 41.23446287 169.66439056 41.23129845 C156.15941004 41.22249766 142.65443744 41.21787815 129.14945403 41.21862892 C128.05876652 41.21868885 128.05876652 41.21868885 126.94604492 41.21875 C125.85401568 41.21881132 125.85401568 41.21881132 124.73992524 41.21887388 C112.9471161 41.21928015 101.15433893 41.20971402 89.36153904 41.19561163 C77.23393247 41.18122406 65.10634146 41.17434276 52.97872615 41.17520541 C46.17758887 41.17553657 39.37648509 41.17282528 32.57535553 41.16202736 C26.17642104 41.15232487 19.77755717 41.15228199 13.37862015 41.15954399 C11.03576936 41.16058716 8.69291413 41.15824288 6.35007095 41.15218353 C-19.89511458 40.78859527 -19.89511458 40.78859527 -42.18676758 53.38452148 C-52.96063157 65.33749935 -53.159433 79.41818143 -53.14079285 94.64862061 C-53.14266286 96.09890306 -53.14496432 97.54918502 -53.14765817 98.99946618 C-53.15375906 102.97158379 -53.15364459 106.9436803 -53.15246379 110.91580153 C-53.15225935 115.20495902 -53.15778268 119.49410981 -53.16252136 123.78326416 C-53.1708191 132.18167214 -53.17357581 140.5800731 -53.17413374 148.97848484 C-53.17460932 155.80694918 -53.17666616 162.63541121 -53.17983437 169.46387482 C-53.18863857 188.83463284 -53.19325411 208.20538534 -53.19250389 227.57614538 C-53.19244396 229.14176518 -53.19244396 229.14176518 -53.19238281 230.73901367 C-53.19232149 232.30655067 -53.19232149 232.30655067 -53.19225893 233.90575507 C-53.19185253 250.83944856 -53.20142109 267.77311981 -53.21552118 284.70680687 C-53.22989327 302.10479058 -53.2367909 319.50276346 -53.2359274 336.90075326 C-53.23559572 346.66412817 -53.23833024 356.42747975 -53.24910545 366.1908493 C-53.25822141 374.50387932 -53.26037671 382.81687544 -53.25359603 391.12990829 C-53.25033635 395.36833194 -53.25025415 399.60669061 -53.25894928 403.84510803 C-53.26683966 407.73134456 -53.26535708 411.61746484 -53.25666515 415.50369862 C-53.25513573 416.90339508 -53.25692509 418.30310032 -53.26252522 419.70278642 C-53.32033224 435.18665743 -51.96208461 448.81440734 -41.02661133 460.58374023 C-29.37874242 471.08259306 -15.71136164 471.55234085 -0.83325195 471.54589844 C1.16998567 471.55123164 3.17322328 471.55657082 5.17646027 471.5621351 C7.31620326 471.56730983 9.45594017 471.57023828 11.59568787 471.57271767 C16.06802165 471.57866325 20.54027735 471.59523528 25.01257324 471.61405945 C26.54790493 471.62039548 28.08323665 471.62672112 29.61856842 471.63303661 C30.38705266 471.63620242 31.1555369 471.63936824 31.94730854 471.64262998 C42.34840383 471.68460697 52.74946029 471.71769423 63.15063477 471.72998047 C70.18256322 471.73837176 77.21429543 471.76089496 84.2461257 471.79933614 C87.96088025 471.81904766 91.6753418 471.83151747 95.39015198 471.82650185 C99.53340463 471.82097474 103.67592809 471.84630377 107.8190918 471.87402344 C109.04011093 471.86742203 110.26113007 471.86082062 111.51914978 471.85401917 C119.13152784 471.93761342 125.16597808 472.62586174 130.83276367 478.22045898 C131.19499023 478.79666992 131.5572168 479.37288086 131.93041992 479.96655273 C132.50083008 480.83473633 132.50083008 480.83473633 133.08276367 481.72045898 C136.1205247 487.339665 135.98858684 494.73328071 134.34448242 500.79467773 C132.10881456 505.80104507 128.78385447 508.81405796 123.99291992 511.40405273 C120.8012481 512.46794334 118.51393731 512.53770472 115.15913391 512.55122375 C113.94125183 512.55837906 112.72336975 512.56553436 111.46858215 512.57290649 C110.11642482 512.57574687 108.7642672 512.57845859 107.41210938 512.58105469 C105.98936803 512.58732096 104.56662831 512.59396791 103.14389038 512.60096741 C98.46467223 512.62201281 93.78545379 512.63237884 89.10620117 512.64233398 C87.49098379 512.64638312 85.87576658 512.65050009 84.26054955 512.65468407 C76.66155319 512.67374667 69.06256654 512.68796839 61.46355087 512.69629604 C52.72253761 512.70603502 43.98177985 512.73226199 35.24085647 512.77279693 C28.46862537 512.80311109 21.69646679 512.8177798 14.92416924 512.82107705 C10.88823273 512.82341264 6.85256875 512.83217429 2.8167057 512.85753822 C-0.99273532 512.88108939 -4.80172974 512.88494577 -8.61122513 512.87477684 C-10.64781314 512.87405746 -12.68437985 512.89296284 -14.72087097 512.9128418 C-27.06198356 512.84453434 -39.49060181 510.51659836 -50.44458008 504.59155273 C-51.10868896 504.24390869 -51.77279785 503.89626465 -52.45703125 503.53808594 C-57.7806821 500.67922095 -62.53748583 497.49030587 -67.00708008 493.40405273 C-67.89911133 492.60354492 -68.79114258 491.80303711 -69.71020508 490.97827148 C-83.62665337 477.84129639 -92.82205289 460.00413365 -94.28349769 440.76520193 C-94.39412503 436.73167873 -94.41266339 432.70848453 -94.39476013 428.67399597 C-94.39894181 427.1232505 -94.40442387 425.57250808 -94.41107994 424.02177125 C-94.4254441 419.79497888 -94.42131832 415.56838299 -94.41391313 411.34158027 C-94.4091612 406.76952628 -94.42170917 402.19751356 -94.43193054 397.62547302 C-94.44908469 388.68161963 -94.44996554 379.73783659 -94.44471764 370.79397102 C-94.44066818 363.52038357 -94.4421287 356.24681683 -94.4474659 348.97323036 C-94.44821432 347.93607547 -94.44896274 346.89892058 -94.44973384 345.83033675 C-94.4512654 343.72301639 -94.45280375 341.61569603 -94.45434881 339.50837568 C-94.46806176 319.76731089 -94.46264477 300.02628579 -94.4511636 280.28522191 C-94.44123378 262.24874261 -94.45416971 244.21236593 -94.47809779 226.17590245 C-94.50251569 207.62963944 -94.51208997 189.08342418 -94.50544506 170.53714544 C-94.50195866 160.13541734 -94.50414656 149.73376812 -94.52169609 139.33205223 C-94.5364518 130.47684307 -94.53700965 121.62176833 -94.51962518 112.76656171 C-94.51114027 108.25413626 -94.50890384 103.74195061 -94.52427673 99.22953796 C-94.53820925 95.08843359 -94.53325206 90.94777252 -94.5140375 86.80669323 C-94.5103032 85.31892129 -94.51312412 83.83111308 -94.52364915 82.34337368 C-94.61101685 69.03371087 -92.6037937 55.81564068 -86.19458008 43.96655273 C-85.84693604 43.30244385 -85.49929199 42.63833496 -85.14111328 41.95410156 C-82.28224829 36.63045071 -79.09333321 31.87364698 -75.00708008 27.40405273 C-74.20657227 26.51202148 -73.40606445 25.61999023 -72.58129883 24.70092773 C-52.22170914 3.13331608 -28.0838744 -0.05493443 0 0 Z " fill="#000000" transform="translate(94.007080078125,-0.404052734375)"/>
<path d="M0 0 C0.85207031 0.32742188 1.70414063 0.65484375 2.58203125 0.9921875 C17.71135712 7.52043205 27.76063757 21.61414721 33.9765625 36.30859375 C38.60543125 49.82748612 37.61095273 66.97590111 32 80 C31.67257812 80.85207031 31.34515625 81.70414062 31.0078125 82.58203125 C28.79588568 87.70821202 25.79730906 91.5260253 22.00614929 95.60778809 C21.52147869 96.12999357 21.03680808 96.65219905 20.53745049 97.19022894 C15.45486098 102.6376735 10.22485173 107.93802128 4.96411133 113.21289062 C3.91126853 114.27202297 2.8586059 115.33133444 1.80610657 116.39080811 C-1.59845602 119.81607722 -5.00804764 123.23631677 -8.41796875 126.65625 C-9.6012752 127.84361334 -10.78455146 129.03100676 -11.96779823 130.21842957 C-17.51923353 135.78882449 -23.07301405 141.35686785 -28.62974089 146.9219842 C-35.0166625 153.318714 -41.39517689 159.72367956 -47.7668516 166.1355958 C-52.71722742 171.11615144 -57.67527402 176.08898703 -62.63910657 181.05613089 C-65.59408791 184.0134557 -68.54571169 186.97395283 -71.48921776 189.94270325 C-74.25240371 192.72921506 -77.0250142 195.50599544 -79.80500984 198.27573395 C-80.81946892 199.28969906 -81.83054928 200.30705833 -82.83785248 201.32813263 C-90.67603859 209.26740609 -97.31058015 213.52023704 -107.95385742 216.47363281 C-108.7046759 216.68879547 -109.45549438 216.90395813 -110.22906494 217.12564087 C-112.68550778 217.82678227 -115.14514914 218.51572075 -117.60546875 219.203125 C-119.33415436 219.69042943 -121.0627757 220.17796191 -122.79133606 220.66571045 C-126.40655695 221.68339828 -130.02359814 222.69430114 -133.6418457 223.70117188 C-138.24816422 224.98418813 -142.8476601 226.29003099 -147.44582653 227.60191727 C-151.01254825 228.61558613 -154.58348431 229.61372625 -158.15572548 230.60774994 C-159.85188511 231.0823103 -161.54655057 231.5622489 -163.23955345 232.04795074 C-185.16167711 238.32014527 -185.16167711 238.32014527 -195.5 234.8125 C-200.37268175 231.27980573 -204.0426983 227.76888923 -206 222 C-206.72085201 213.21636878 -205.54814768 205.69017529 -202.81640625 197.375 C-202.48542435 196.31649841 -202.15444244 195.25799683 -201.81343079 194.16741943 C-200.74744609 190.77239816 -199.65583229 187.38630223 -198.5625 184 C-197.82084663 181.66228509 -197.08078158 179.32406569 -196.34228516 176.98535156 C-194.89241541 172.39861745 -193.433802 167.81479481 -191.97021484 163.23242188 C-190.29974973 157.97957228 -188.69670805 152.71073498 -187.14453125 147.421875 C-186.74617986 146.07807534 -186.34766964 144.73432275 -185.94897461 143.390625 C-185.26008706 141.05539174 -184.58157127 138.71705914 -183.91625977 136.375 C-181.45259973 128.16844102 -178.02484923 122.44412967 -171.44664001 116.91468811 C-166.244753 112.41526219 -161.43496095 107.54405792 -156.59594727 102.66186523 C-155.57514324 101.63585647 -154.55408908 100.61009652 -153.5328064 99.58456421 C-151.34840669 97.39028944 -149.16549257 95.19455149 -146.983675 92.99770927 C-143.52712752 89.51792499 -140.06555342 86.04317008 -136.60301208 82.5693512 C-126.76246153 72.69550844 -116.92615801 62.81746211 -107.1003418 52.92895508 C-101.66246584 47.45646891 -96.21917574 41.98942844 -90.76989406 36.52829891 C-87.33253796 33.08288601 -83.90182829 29.6310353 -80.47598088 26.17418087 C-78.33675289 24.01885044 -76.19116113 21.8699422 -74.04377365 19.72274399 C-73.05639012 18.73295636 -72.07155141 17.74062182 -71.08960152 16.74544334 C-63.45718725 9.01459721 -56.08678722 2.64621733 -45.6875 -0.8125 C-43.92986328 -1.40998047 -43.92986328 -1.40998047 -42.13671875 -2.01953125 C-28.73644804 -6.20815883 -12.88668391 -5.55175255 0 0 Z M-39 43 C-39.66 43.99 -40.32 44.98 -41 46 C-32.09 54.91 -23.18 63.82 -14 73 C-8.65396368 68.72317094 -5.63241834 65.88099459 -4.54296875 59.1953125 C-4.1815785 52.58943498 -5.14220356 48.09416088 -9.24609375 42.84765625 C-13.70548851 38.14989741 -17.36989046 36.76299511 -23.875 36.375 C-30.18560192 36.5731973 -34.39526162 38.75662001 -39 43 Z M-77.68774414 81.30444336 C-78.73670364 82.31222336 -78.73670364 82.31222336 -79.80685425 83.34036255 C-86.31607755 89.60787206 -92.77618038 95.92579691 -99.22168827 102.25874996 C-103.54549263 106.50558902 -107.88357048 110.73495919 -112.26245117 114.92504883 C-116.50395516 118.98453271 -120.70030732 123.0862559 -124.87063408 127.21878242 C-126.45400278 128.77365086 -128.05191935 130.31387144 -129.66542244 131.83744621 C-141.76754753 143.2952925 -147.27028612 153.97353872 -151.27177238 170.13942146 C-152.19952469 173.78376052 -153.31335835 177.3580273 -154.45423985 180.94050503 C-155.1280778 183.12822101 -155.1280778 183.12822101 -155 186 C-149.31635349 184.73365674 -143.65464088 183.39002042 -138 182 C-137.09668945 181.78037598 -136.19337891 181.56075195 -135.26269531 181.33447266 C-132.48005256 180.64539551 -129.70872915 179.92100995 -126.9375 179.1875 C-126.07036377 178.97593262 -125.20322754 178.76436523 -124.30981445 178.54638672 C-119.84371632 177.3279294 -116.58754485 175.94304577 -113.13684082 172.81236267 C-112.44610474 172.18661787 -111.75536865 171.56087307 -111.04370117 170.91616631 C-107.98364251 168.04706715 -104.99017062 165.12176426 -102.03320312 162.14672852 C-101.38829926 161.50197067 -100.74339539 160.85721283 -100.07894897 160.19291687 C-97.97733287 158.09061182 -95.8792673 155.98480223 -93.78125 153.87890625 C-92.313167 152.40895544 -90.84486103 150.93922728 -89.37634277 149.4697113 C-85.53386864 145.62344055 -81.6944086 141.77417494 -77.85559082 137.92425537 C-73.92899789 133.9873866 -69.99953094 130.05338869 -66.0703125 126.11914062 C-58.37740957 118.41555078 -50.68769113 110.70879065 -43 103 C-43.94502328 101.8892366 -44.89123489 100.77948415 -45.8379364 99.67015076 C-46.36472835 99.05204749 -46.89152029 98.43394423 -47.43427563 97.79711056 C-49.57535487 95.33961793 -51.84172868 93.02854362 -54.14453125 90.72265625 C-55.52995117 89.33530273 -55.52995117 89.33530273 -56.94335938 87.91992188 C-57.41410889 87.45126709 -57.8848584 86.9826123 -58.36987305 86.49975586 C-59.83046259 85.04460429 -61.28553203 83.58408143 -62.74023438 82.12304688 C-63.65740234 81.20716797 -64.57457031 80.29128906 -65.51953125 79.34765625 C-66.35589111 78.51242432 -67.19225098 77.67719238 -68.05395508 76.81665039 C-72.09539194 73.04393283 -74.52110475 78.24762463 -77.68774414 81.30444336 Z " fill="#000000" transform="translate(476,276)"/>
<path d="M0 0 C4.13281671 3.62861307 5.67580274 6.43204369 6.32421875 11.76953125 C6.70608555 21.79064181 4.49702714 27.03491522 -2.109375 34.33984375 C-3.29466797 35.60634766 -3.29466797 35.60634766 -4.50390625 36.8984375 C-7.2660644 39.9576019 -9.7846971 43.13841909 -12.296875 46.40234375 C-16.80790747 52.24024473 -21.54905458 57.83176147 -26.41210938 63.37841797 C-29.46241887 66.8643555 -32.43079438 70.38633875 -35.296875 74.02734375 C-52.37279719 95.58748921 -52.37279719 95.58748921 -64.046875 97.71484375 C-78.1419645 98.83856644 -87.02840635 96.77755426 -98.046875 87.71484375 C-101.38832155 84.65583818 -104.62797885 81.5054199 -107.83007812 78.30224609 C-109.29798089 76.83874118 -110.78120324 75.39203622 -112.265625 73.9453125 C-118.17186729 68.11264867 -123.22474435 63.01014196 -124.54296875 54.51953125 C-124.39605284 47.17373598 -123.63940638 42.72778562 -118.734375 37.02734375 C-112.95640753 32.0556043 -108.49153342 31.37456764 -101.046875 31.31640625 C-89.64342255 32.83092728 -81.03570787 44.45708871 -74.046875 52.71484375 C-70.23341372 51.19802881 -68.37435403 48.97031349 -65.859375 45.77734375 C-65.06917969 44.78605469 -64.27898437 43.79476562 -63.46484375 42.7734375 C-62.66691406 41.76410156 -61.86898437 40.75476563 -61.046875 39.71484375 C-59.59273668 37.91977069 -58.134465 36.12803727 -56.671875 34.33984375 C-55.93324219 33.43621094 -55.19460937 32.53257812 -54.43359375 31.6015625 C-51.8103429 28.42875991 -49.15132225 25.28839125 -46.484375 22.15234375 C-43.1557181 18.23794018 -39.87558376 14.29555474 -36.671875 10.27734375 C-36.03636719 9.48199219 -35.40085937 8.68664062 -34.74609375 7.8671875 C-33.71293733 6.5585227 -32.69134787 5.24046606 -31.69140625 3.90625 C-28.12052484 -0.72780646 -24.20598491 -3.20440812 -18.671875 -5.09765625 C-11.2748841 -5.62601274 -6.03595238 -4.48475482 0 0 Z " fill="#000000" transform="translate(204.046875,323.28515625)"/>
<path d="M0 0 C4.13281671 3.62861307 5.67580274 6.43204369 6.32421875 11.76953125 C6.70608555 21.79064181 4.49702714 27.03491522 -2.109375 34.33984375 C-3.29466797 35.60634766 -3.29466797 35.60634766 -4.50390625 36.8984375 C-7.2660644 39.9576019 -9.7846971 43.13841909 -12.296875 46.40234375 C-16.80790747 52.24024473 -21.54905458 57.83176147 -26.41210938 63.37841797 C-29.46241887 66.8643555 -32.43079438 70.38633875 -35.296875 74.02734375 C-52.37279719 95.58748921 -52.37279719 95.58748921 -64.046875 97.71484375 C-78.1419645 98.83856644 -87.02840635 96.77755426 -98.046875 87.71484375 C-101.38832155 84.65583818 -104.62797885 81.5054199 -107.83007812 78.30224609 C-109.29798089 76.83874118 -110.78120324 75.39203622 -112.265625 73.9453125 C-118.17186729 68.11264867 -123.22474435 63.01014196 -124.54296875 54.51953125 C-124.39605284 47.17373598 -123.63940638 42.72778562 -118.734375 37.02734375 C-112.95640753 32.0556043 -108.49153342 31.37456764 -101.046875 31.31640625 C-89.64342255 32.83092728 -81.03570787 44.45708871 -74.046875 52.71484375 C-70.23341372 51.19802881 -68.37435403 48.97031349 -65.859375 45.77734375 C-65.06917969 44.78605469 -64.27898437 43.79476562 -63.46484375 42.7734375 C-62.66691406 41.76410156 -61.86898437 40.75476563 -61.046875 39.71484375 C-59.59273668 37.91977069 -58.134465 36.12803727 -56.671875 34.33984375 C-55.93324219 33.43621094 -55.19460937 32.53257812 -54.43359375 31.6015625 C-51.8103429 28.42875991 -49.15132225 25.28839125 -46.484375 22.15234375 C-43.1557181 18.23794018 -39.87558376 14.29555474 -36.671875 10.27734375 C-36.03636719 9.48199219 -35.40085937 8.68664062 -34.74609375 7.8671875 C-33.71293733 6.5585227 -32.69134787 5.24046606 -31.69140625 3.90625 C-28.12052484 -0.72780646 -24.20598491 -3.20440812 -18.671875 -5.09765625 C-11.2748841 -5.62601274 -6.03595238 -4.48475482 0 0 Z " fill="#000000" transform="translate(204.046875,202.28515625)"/>
<path d="M0 0 C3.81790471 3.04018338 6.15807429 6.75547286 7.6875 11.34375 C7.85838919 13.23473694 7.95382267 15.13311871 8 17.03125 C8.05607422 18.52205078 8.05607422 18.52205078 8.11328125 20.04296875 C7.13418174 27.63323557 2.64757922 32.98199877 -2.375 38.46875 C-6.69217169 43.3098032 -10.85826325 48.20163302 -14.8125 53.34375 C-19.23755567 59.07728112 -23.89993836 64.5612056 -28.67651367 70.00415039 C-31.76027569 73.52534514 -34.74276013 77.09085267 -37.625 80.78125 C-44.97683481 90.04025534 -52.80173181 97.9389244 -64.8671875 100.125 C-74.3521879 100.97349844 -83.71514942 99.45383328 -91.48828125 93.74609375 C-93.60399384 91.90809127 -95.62260589 90.00297175 -97.60986328 88.02734375 C-99.72766424 85.93322912 -101.87936393 83.87564116 -104.02734375 81.8125 C-105.74898092 80.13704391 -107.46901523 78.4599393 -109.1875 76.78125 C-110.02079834 75.9780835 -110.85409668 75.17491699 -111.71264648 74.34741211 C-117.23282515 68.87767674 -121.59038506 63.99485252 -122.80859375 56.1484375 C-122.66167784 48.80264223 -121.90503138 44.35669187 -117 38.65625 C-111.21061951 33.67469004 -106.64124904 32.83031522 -99.13671875 33.0703125 C-90.02634885 33.95236768 -83.14253523 42.07121386 -77.5 48.71875 C-76.71689453 49.68941406 -76.71689453 49.68941406 -75.91796875 50.6796875 C-74.18380783 52.47713896 -72.59370213 53.36397121 -70.3125 54.34375 C-64.05492545 47.09089286 -57.82971066 39.82220748 -51.7890625 32.38671875 C-48.04188739 27.78253987 -44.26653333 23.20149203 -40.47851562 18.63085938 C-37.83641283 15.43795991 -35.21101789 12.24302845 -32.6953125 8.94921875 C-24.46229213 -1.69103422 -13.02768407 -7.59948238 0 0 Z " fill="#000000" transform="translate(202.3125,77.65625)"/>
<path d="M0 0 C0.68009125 -0.0065712 1.3601825 -0.0131424 2.06088257 -0.01991272 C4.31117877 -0.03961812 6.5614082 -0.05130401 8.81176758 -0.0612793 C9.96763083 -0.06739259 9.96763083 -0.06739259 11.14684486 -0.07362938 C15.22793941 -0.09448147 19.30900045 -0.10878514 23.39013672 -0.11816406 C27.59214219 -0.12920811 31.79361513 -0.16358674 35.99543285 -0.20333576 C39.23752278 -0.22956727 42.47948727 -0.2378618 45.72167397 -0.24144554 C47.26973364 -0.2462971 48.81778826 -0.25787009 50.36574364 -0.27648354 C65.39710755 -0.44594918 65.39710755 -0.44594918 72.26879883 4.17700195 C74.10864258 5.9934082 74.10864258 5.9934082 75.20629883 7.73950195 C75.58657227 8.31829102 75.9668457 8.89708008 76.35864258 9.4934082 C79.3964036 15.11261422 79.26446575 22.50622992 77.62036133 28.56762695 C75.38469347 33.57399429 72.05973337 36.58700718 67.26879883 39.17700195 C63.83756601 40.32074623 61.15737809 40.32504543 57.53759766 40.35400391 C56.51746078 40.3638607 56.51746078 40.3638607 55.47671509 40.37391663 C53.22641889 40.39362202 50.97618945 40.40530792 48.72583008 40.4152832 C47.56996682 40.42139649 47.56996682 40.42139649 46.39075279 40.42763329 C42.30965825 40.44848538 38.22859721 40.46278905 34.14746094 40.47216797 C29.94545547 40.48321201 25.74398252 40.51759065 21.5421648 40.55733967 C18.30007488 40.58357118 15.05811039 40.59186571 11.81592369 40.59544945 C10.26786401 40.600301 8.7198094 40.611874 7.17185402 40.63048744 C-7.85950989 40.79995308 -7.85950989 40.79995308 -14.73120117 36.17700195 C-16.57104492 34.3605957 -16.57104492 34.3605957 -17.66870117 32.61450195 C-18.04897461 32.03571289 -18.42924805 31.45692383 -18.82104492 30.8605957 C-21.85880595 25.24138969 -21.72686809 17.84777398 -20.08276367 11.78637695 C-17.84709581 6.78000961 -14.52213572 3.76699673 -9.73120117 1.17700195 C-6.29996836 0.03325768 -3.61978044 0.02895848 0 0 Z " fill="#000000" transform="translate(247.731201171875,251.822998046875)"/>
<path d="M0 0 C0.68009125 -0.0065712 1.3601825 -0.0131424 2.06088257 -0.01991272 C4.31117877 -0.03961812 6.5614082 -0.05130401 8.81176758 -0.0612793 C9.96763083 -0.06739259 9.96763083 -0.06739259 11.14684486 -0.07362938 C15.22793941 -0.09448147 19.30900045 -0.10878514 23.39013672 -0.11816406 C27.59214219 -0.12920811 31.79361513 -0.16358674 35.99543285 -0.20333576 C39.23752278 -0.22956727 42.47948727 -0.2378618 45.72167397 -0.24144554 C47.26973364 -0.2462971 48.81778826 -0.25787009 50.36574364 -0.27648354 C65.39710755 -0.44594918 65.39710755 -0.44594918 72.26879883 4.17700195 C74.10864258 5.9934082 74.10864258 5.9934082 75.20629883 7.73950195 C75.58657227 8.31829102 75.9668457 8.89708008 76.35864258 9.4934082 C79.3964036 15.11261422 79.26446575 22.50622992 77.62036133 28.56762695 C75.38469347 33.57399429 72.05973337 36.58700718 67.26879883 39.17700195 C63.83756601 40.32074623 61.15737809 40.32504543 57.53759766 40.35400391 C56.51746078 40.3638607 56.51746078 40.3638607 55.47671509 40.37391663 C53.22641889 40.39362202 50.97618945 40.40530792 48.72583008 40.4152832 C47.56996682 40.42139649 47.56996682 40.42139649 46.39075279 40.42763329 C42.30965825 40.44848538 38.22859721 40.46278905 34.14746094 40.47216797 C29.94545547 40.48321201 25.74398252 40.51759065 21.5421648 40.55733967 C18.30007488 40.58357118 15.05811039 40.59186571 11.81592369 40.59544945 C10.26786401 40.600301 8.7198094 40.611874 7.17185402 40.63048744 C-7.85950989 40.79995308 -7.85950989 40.79995308 -14.73120117 36.17700195 C-16.57104492 34.3605957 -16.57104492 34.3605957 -17.66870117 32.61450195 C-18.04897461 32.03571289 -18.42924805 31.45692383 -18.82104492 30.8605957 C-21.85880595 25.24138969 -21.72686809 17.84777398 -20.08276367 11.78637695 C-17.84709581 6.78000961 -14.52213572 3.76699673 -9.73120117 1.17700195 C-6.29996836 0.03325768 -3.61978044 0.02895848 0 0 Z " fill="#000000" transform="translate(247.731201171875,128.822998046875)"/>
</svg>
